PathFileType	4	(X/Y/Z)	C:\Users\WrightLab\Desktop\Jo\P1_boxCal4.trc
DataRate	CameraRate	NumFrames	NumMarkers	Units	OrigDataRate	OrigDataStartFrame	OrigNumFrames
100.00	100.00	      29	19	mm	100.00	302	      1205
Frame#	Time	Headset_Front			Headset_Back			Headset_Left			Headset_Right			Left_Shoulder			Right_Shoulder			Sternum			C7			Left Elbow			Right Elbow			Left Wrist			Right Wrist			Left ASIS			Right ASIS			S2			Left Knee			Right Knee			Left Ankle			Right Ankle			
		X1	Y1	Z1	X2	Y2	Z2	X3	Y3	Z3	X4	Y4	Z4	X5	Y5	Z5	X6	Y6	Z6	X7	Y7	Z7	X8	Y8	Z8	X9	Y9	Z9	X10	Y10	Z10	X11	Y11	Z11	X12	Y12	Z12	X13	Y13	Z13	X14	Y14	Z14	X15	Y15	Z15	X16	Y16	Z16	X17	Y17	Z17	X18	Y18	Z18	X19	Y19	Z19	

302	3.010							-124.70950	1256.34595	-749.54419	-573.46539	974.48389	-804.21448	23.86165	753.30945	-708.79034				-201.27202	863.09277	-586.59924	-55.65063	935.32025	-794.82098							-89.18414	420.43390	-714.72284	-313.69211	860.56787	-897.76178							-659.24945	747.38342	-792.78796	-398.66687	860.29016	-574.86829	-128.02493	201.33650	-985.99646	-501.00330	1233.51868	-703.20209				
303	3.020							-125.15320	1258.52429	-742.27271	-574.98608	975.72101	-789.73486	24.54517	755.18475	-705.65662				-202.54791	864.23718	-577.19904	-56.76003	937.34308	-788.40601							-87.07510	423.87653	-693.89886	-314.82458	862.62109	-887.93396							-659.33612	748.28357	-774.23627	-399.96567	862.10260	-565.16504	-129.05301	204.26172	-966.21588	-500.70865	1235.24719	-692.15869	-348.45557	19.42517	-681.79144	
304	3.030							-125.83611	1259.84656	-733.00793	-577.01611	977.33130	-775.09595	24.98849	757.61353	-702.45746				-204.15228	866.00439	-567.56451	-56.74347	940.24310	-783.44135							-86.20028	428.20615	-672.81476	-315.72241	865.43713	-878.28070							-659.50873	749.25134	-754.78638	-401.51880	864.53491	-556.30328	-130.73790	206.03348	-942.76636	-500.69446	1237.40991	-680.25769	-346.31052	26.48374	-667.70105	
305	3.040							-125.50211	1261.36011	-724.61249	-578.73395	978.89435	-760.61713	26.26633	759.28876	-699.03845				-204.46764	867.42035	-558.38324	-57.16753	942.41510	-777.61182							-84.57436	432.45505	-652.08325	-316.48331	868.19135	-868.49420	-468.61395	442.28806	-592.21136				-659.84528	750.16266	-737.02051	-402.09799	866.69922	-547.13147	-130.86963	205.01126	-919.34912	-500.65024	1240.36560	-670.68335	-344.05380	31.69142	-653.62885	
306	3.050							-125.90301	1263.25500	-716.22137	-580.59631	980.72040	-746.18475	27.45663	761.54425	-695.45435				-203.94556	870.08008	-548.07324	-57.57885	944.60052	-771.93164							-83.81421	437.42422	-630.98785	-317.07285	870.88068	-858.92346	-473.36670	441.98737	-594.26202				-659.04639	750.38678	-715.06433	-403.15149	869.21747	-537.89331	-132.01962	203.35556	-895.60864	-500.15222	1242.48035	-659.41644	-340.43805	37.55450	-639.93036	
307	3.060							-126.20470	1265.21436	-708.60284	-582.17505	981.98187	-731.25787	28.80239	763.83197	-691.26666				-204.26590	871.01776	-538.46698	-57.96464	946.75830	-765.67792							-82.87898	442.63086	-610.90649	-317.49878	873.47778	-849.28345	-474.29092	439.48770	-595.23828				-658.96637	751.51617	-694.88837	-403.60840	871.72955	-528.91693	-131.53419	202.42061	-871.32251	-499.82581	1245.47388	-649.74695	-336.94894	43.09423	-626.91113	
308	3.070							-126.30696	1266.90588	-699.71869	-584.44568	983.86945	-716.99536	30.53134	766.24658	-687.66870				-203.52638	873.65961	-528.45892	-58.03793	948.82715	-759.22559							-82.72109	447.51318	-590.95801	-318.20261	876.46710	-841.02496	-475.66937	438.81577	-597.12482				-658.45154	752.93512	-674.75403	-405.04822	874.56812	-520.03333	-132.38622	197.83073	-845.15881	-499.69580	1247.62512	-638.68274	-332.66165	47.55183	-614.83960	
309	3.080							-126.13489	1268.65735	-691.85284	-585.29645	985.46063	-702.07629	32.59123	768.23584	-683.18079				-202.89650	875.33820	-520.45569	-58.34610	950.81555	-753.71783							-83.18655	453.07458	-572.39862	-318.34412	878.82867	-831.57288	-475.00818	437.51849	-596.81903				-657.03845	754.40149	-653.73505	-404.76611	877.12805	-511.10413	-132.93837	194.46786	-818.44781	-499.10455	1249.88013	-628.29407				
310	3.090							-126.53635	1269.79443	-682.39728	-587.12317	987.90710	-688.32593	34.60981	770.58466	-679.88800							-58.38804	953.51984	-747.77716							-83.45373	458.17029	-555.09100	-318.61612	880.76447	-822.59052	-476.77057	436.68875	-596.20264				-656.26550	755.30035	-632.09283	-404.86322	878.89642	-501.50342	-132.92140	189.41811	-790.83704	-498.57846	1252.04639	-617.04999	-434.17554	70.29917	-617.05194	
311	3.100							-126.98193	1270.92444	-673.79480	-588.57770	989.71625	-673.57147	36.51896	773.05273	-676.43213							-58.83242	955.50433	-741.96167							-84.84444	462.74600	-537.66833	-318.30887	882.50879	-814.13416	-476.24884	436.15033	-594.70398				-654.94336	757.10529	-611.61188	-404.94733	880.51282	-491.90128	-132.66118	183.93575	-763.21844	-498.40735	1254.07202	-607.91748				
312	3.110							-127.03605	1271.90930	-664.94287	-589.73401	991.08923	-659.14771	38.78694	775.34662	-672.79700							-58.91394	957.82605	-736.37158							-86.16975	467.59048	-521.81030	-318.12723	883.84717	-804.80298	-476.47437	435.31805	-593.15625				-653.51862	758.94952	-590.38245	-405.51608	882.12665	-483.35831	-130.55629	177.11488	-735.59521	-497.84811	1256.06458	-597.04504	-433.23233	69.59093	-618.75812	
313	3.120							-127.06602	1272.77405	-656.87280	-591.01477	992.51135	-645.12421	41.16464	777.05310	-668.70587							-58.56845	959.15717	-730.06317							-87.93533	472.13989	-507.03214	-317.57578	884.57953	-795.79895	-477.02148	435.38696	-590.25659				-652.39209	760.89050	-569.48163	-405.20300	882.41553	-474.10873	-129.79875	170.29749	-705.75775	-497.52698	1257.56262	-586.32977	-433.26218	69.69156	-618.32947	
314	3.130							-126.83626	1273.08716	-648.24768	-592.45648	994.11835	-630.48535	43.21549	779.17816	-665.28821							-58.46802	960.78156	-723.96539							-89.24345	475.71503	-491.73911	-316.56915	885.26208	-786.87091	-477.62833	435.04404	-586.37518				-650.55737	762.37915	-547.80585	-404.77344	882.35565	-466.59143	-128.33351	161.90462	-675.87720	-497.37054	1258.89319	-575.86267	-433.07916	69.85774	-617.89539	
315	3.140							-127.76061	1273.40771	-638.45703	-593.36328	994.91998	-616.02985	45.20610	780.01276	-660.86816							-58.67590	961.48193	-716.15491							-91.91994	479.57541	-478.32764	-316.01465	885.18915	-777.68250	-477.87900	435.47433	-582.47437				-648.11560	763.60638	-526.55402	-404.76306	882.51044	-458.86954	-127.17017	155.11667	-645.36639	-496.56134	1260.01514	-565.08936	-433.40277	70.37404	-616.13220	
316	3.150							-127.93649	1273.37781	-628.88440	-594.65857	995.21515	-601.66486	47.24663	781.79736	-657.41272							-59.15140	961.66992	-708.02417							-94.69389	481.96967	-464.49396	-314.84561	885.13300	-769.21808	-476.97864	434.85336	-576.63446				-646.68591	764.76898	-504.64026	-404.14594	883.24811	-447.47934	-124.83829	147.54893	-614.83484	-496.25037	1260.78748	-555.63525	-433.24319	70.18986	-616.03534	
317	3.160							-127.45660	1272.84338	-619.88239	-595.75580	996.06860	-588.17621	49.66432	783.06567	-653.25043							-57.88527	962.81549	-701.42889							-97.41850	483.55875	-449.80109	-314.12030	884.64636	-759.80035	-475.23785	433.97391	-572.38483				-644.76831	766.90210	-483.68091	-405.69211	880.41241	-445.60904	-123.03199	139.50304	-582.71802	-496.10132	1261.03357	-544.54175	-433.04834	69.82465	-614.53369	
318	3.170							-127.35761	1272.59827	-611.82819	-596.69788	995.80219	-573.64984	52.44892	783.73401	-648.58319							-57.28407	963.28314	-694.68646							-99.27615	485.83237	-436.87546	-312.81061	883.99084	-750.08295	-473.81522	433.29904	-567.25104				-642.68384	768.68433	-462.82645	-406.49011	879.78973	-437.99115	-120.73003	131.83438	-550.67596	-495.38690	1261.28918	-534.19714	-432.95749	70.24158	-613.11053	
319	3.180							-127.22628	1271.63977	-601.84198	-597.38538	995.78448	-558.77368	53.78069	784.40637	-645.44788							-56.52994	963.74640	-687.76746							-101.65814	486.89767	-423.43945	-311.86487	883.15826	-740.97577	-471.96744	431.97668	-561.23578							-406.53531	878.04761	-431.51740	-117.90207	125.44167	-518.75317	-494.89072	1261.18274	-523.92346	-432.22055	69.26478	-611.28625	
320	3.190							-127.22933	1270.74646	-592.63989	-598.13702	995.08942	-544.75220	55.72620	784.35193	-640.75739							-55.58720	963.79456	-679.75293							-104.22969	487.50891	-409.84677	-310.18384	882.45221	-732.28900	-469.92578	430.73999	-555.52759							-407.17926	876.21143	-423.21829	-115.24834	119.63525	-485.86682	-494.47928	1260.65771	-513.97968	-431.95786	69.73250	-609.66626	
321	3.200							-126.38378	1269.29541	-581.11041	-598.95978	994.41010	-530.02771	58.11928	785.15594	-634.78760							-55.13604	963.20105	-670.80450							-105.79681	487.64175	-398.10977	-308.24811	881.45087	-722.78235	-468.06223	430.02301	-550.02905							-407.80872	875.34625	-413.67270	-113.08695	113.98924	-451.64557	-494.03098	1259.75793	-502.61661	-431.43497	69.57253	-609.65387	
322	3.210							-126.04678	1268.37378	-571.40918	-599.39862	993.28992	-514.53540	59.97608	785.40094	-629.34448							-54.00750	963.24036	-662.17102							-108.08862	487.01416	-385.94669	-306.05524	881.01434	-713.65576	-465.48038	429.62509	-545.31036							-408.50616	873.96631	-402.96426	-110.52474	109.97049	-419.24506	-493.02307	1259.27319	-492.51410	-430.81812	69.45135	-609.16675	
323	3.220							-125.52929	1267.18445	-560.78351	-599.60138	992.53827	-500.27762	61.39288	785.87067	-624.26141							-53.37215	962.21167	-653.41882							-110.68990	485.63074	-373.88306	-303.73239	880.15326	-705.04077	-463.15933	428.17566	-538.71521							-409.79825	872.42334	-395.60953	-108.26896	107.23273	-386.15491	-492.51685	1258.05725	-481.90005	-430.19174	70.24632	-608.74219	
324	3.230							-125.11584	1266.04443	-550.17657	-599.88354	991.89569	-485.33884	61.77673	786.14362	-619.83527							-52.15171	962.24493	-644.91870							-112.97708	484.62439	-363.80832	-301.11029	879.20367	-695.65308	-460.91461	427.60922	-533.76617							-408.97501	870.83319	-385.21426	-106.78215	105.55829	-353.67697	-491.99167	1256.83911	-471.98846	-429.56836	69.88885	-608.66058	
325	3.240							-124.22048	1264.50769	-539.07678	-598.50073	990.22162	-469.73819	63.30159	786.04114	-613.19415							-51.73103	961.69598	-635.98865							-115.23364	481.92252	-352.14627	-298.77927	878.60034	-685.79285	-459.27286	426.18030	-527.53235							-409.96390	868.18024	-375.87027	-104.90679	105.00585	-320.79105	-491.19293	1255.92297	-461.39273	-428.93579	70.61581	-608.09930	
326	3.250							-123.56161	1263.51001	-528.77277	-598.24518	989.24402	-455.56577	64.02947	786.48059	-608.78082							-51.41122	960.56659	-626.82373							-116.70337	479.54715	-342.85556	-296.35709	878.15967	-676.45038	-457.88208	424.98294	-522.65472				-428.61334	70.90671	-607.93542	-409.68964	867.31543	-364.09662	-104.73859	105.19673	-288.76398	-489.77386	1254.54126	-451.02512				
327	3.260							-122.30611	1262.27698	-517.96167	-596.63763	988.21051	-441.53760	65.02708	786.40131	-602.17920							-50.23971	960.02411	-617.97021							-118.11163	476.45807	-333.41165	-293.85742	877.71490	-666.87360	-457.04974	423.63101	-517.16162				-428.19620	71.14011	-607.05847	-410.01163	864.07623	-355.66766	-104.06506	107.83147	-257.84552	-488.84119	1253.36389	-440.36160				
328	3.270							-121.31664	1260.85144	-506.54568	-595.78552	988.12262	-427.96912	66.19110	786.01379	-595.81323							-49.83670	959.64038	-609.25507							-118.69534	474.18152	-324.61600	-291.83987	876.67346	-656.54706	-456.34143	422.18607	-511.00253				-427.95245	71.83221	-605.85828	-409.98447	863.43408	-344.61514	-103.65536	110.49440	-229.39011	-487.53351	1252.24146	-430.29333				
329	3.280							-119.91697	1259.85950	-495.99951	-593.64240	986.75769	-413.73849	66.67471	786.04834	-589.73041							-49.60632	959.10938	-599.97363							-118.82663	470.78476	-312.93445	-289.57990	875.88190	-645.90576	-455.96429	421.19949	-505.50687				-428.22662	71.65067	-606.05176	-408.16666	862.25342	-333.12393	-104.56246	115.28169	-204.10973	-486.59326	1251.30920	-419.88666				
330	3.290							-118.60674	1258.49036	-484.59601	-591.83405	985.96515	-401.41034	67.15760	785.46600	-582.26984							-48.82587	958.64233	-590.95520							-118.21309	468.21390	-301.87494	-287.43500	874.27307	-635.14813	-454.72147	419.81760	-498.26453				-428.31769	73.02440	-604.58209	-407.37903	861.18481	-323.20139	-105.58894	119.76750	-180.47279	-484.91864	1249.77979	-409.09686				
